PathFileType	4	(X/Y/Z)	pose_F01_0-96.trc
DataRate	CameraRate	NumFrames	NumMarkers	Units	OrigDataRate	OrigDataStartFrame	OrigNumFrames
30	30	7	21	m	30	12	96
Frame#	Time	CHip			RHip			RKnee			RAnkle			RBigToe			RSmallToe			RHeel			LHip			LKnee			LAnkle			LBigToe			LSmallToe			LHeel			Neck			Nose			RShoulder			RElbow			RWrist			LShoulder			LElbow			LWrist			
		X1	Y1	Z1	X2	Y2	Z2	X3	Y3	Z3	X4	Y4	Z4	X5	Y5	Z5	X6	Y6	Z6	X7	Y7	Z7	X8	Y8	Z8	X9	Y9	Z9	X10	Y10	Z10	X11	Y11	Z11	X12	Y12	Z12	X13	Y13	Z13	X14	Y14	Z14	X15	Y15	Z15	X16	Y16	Z16	X17	Y17	Z17	X18	Y18	Z18	X19	Y19	Z19	X20	Y20	Z20	X21	Y21	Z21	
12	0.4	-0.2940917377368076	1.8342232041518758	-0.7000177919063582	-0.31284269916252533	1.8291821828478203	-0.6310143356478287	-0.3024894710317929	1.689294498883445	-0.5965422956435225	-0.2954767202767287	1.559905627321199	-0.5668751742451404	-0.2863604797215126	1.5326370749065632	-0.525210289074862	-0.29574349110482373	1.5395369121811635	-0.5021410374379638	-0.29965650022383	1.550705777434455	-0.5956924859563897	-0.2758421224723177	1.83645636101155	-0.7665755225613897	-0.2814992961573878	1.6879141406503195	-0.7474685496965418	-0.2420055273115262	1.5756574266640357	-0.7336205761882466	-0.38029063468604746	1.5065013385349555	-1.0582667149606126	-0.367378507053011	1.510238564997473	-1.0833399886814208				-0.2851454417360141	1.9988965950859794	-0.7128685986627489	-0.26619718703396344	2.064972292351387	-0.6654358065071364	-0.3127743016949179	1.9925223266848533	-0.6189913423353145	-0.3192154851343613	1.9078315692336978	-0.5596695363315219	-1.6430133290596005	1.884612843055058	0.9801552249272775	-0.25670673828099794	2.0038737391944563	-0.8045565773112482	-1.381622671938654	1.846549979173502	0.5841745084068392	-1.5233072103031036	1.8763043333001346	0.8169474265324549
13	0.43333333333333335	-0.2940917377368076	1.8342232041518758	-0.7000177919063582	-0.31284269916252533	1.8291821828478203	-0.6310143356478287	-0.3024894710317929	1.689294498883445	-0.5965422956435225	-0.2954767202767287	1.559905627321199	-0.5668751742451404	-0.2863604797215126	1.5326370749065632	-0.525210289074862	-0.29574349110482373	1.5395369121811635	-0.5021410374379638	-0.29965650022383	1.550705777434455	-0.5956924859563897	-0.2758421224723177	1.83645636101155	-0.7665755225613897	-0.2814992961573878	1.6879141406503195	-0.7474685496965418	-0.2420055273115262	1.5756574266640357	-0.7336205761882466	-0.38029063468604746	1.5065013385349555	-1.0582667149606126	-0.367378507053011	1.510238564997473	-1.0833399886814208				-0.2851454417360141	1.9988965950859794	-0.7128685986627489	-0.26619718703396344	2.064972292351387	-0.6654358065071364	-0.3127743016949179	1.9925223266848533	-0.6189913423353145	-0.3192154851343613	1.9078315692336978	-0.5596695363315219	-1.6430133290596005	1.884612843055058	0.9801552249272775	-0.25670673828099794	2.0038737391944563	-0.8045565773112482	-1.3986919926600072	1.8483118177384692	0.6127680470741796	-1.5274078456017357	1.8774160421236887	0.8223282559188864
14	0.4666666666666667	-0.2940917377368076	1.8342232041518758	-0.7000177919063582	-0.31284269916252533	1.8291821828478203	-0.6310143356478287	-0.3024894710317929	1.689294498883445	-0.5965422956435225	-0.2954767202767287	1.559905627321199	-0.5668751742451404	-0.2863604797215126	1.5326370749065632	-0.525210289074862	-0.29574349110482373	1.5395369121811635	-0.5021410374379638	-0.29965650022383	1.550705777434455	-0.5956924859563897	-0.2758421224723177	1.83645636101155	-0.7665755225613897	-0.2814992961573878	1.6879141406503195	-0.7474685496965418	-0.2420055273115262	1.5756574266640357	-0.7336205761882466	-0.38029063468604746	1.5065013385349555	-1.0582667149606126	-0.367378507053011	1.510238564997473	-1.0833399886814208				-0.2851454417360141	1.9988965950859794	-0.7128685986627489	-0.26619718703396344	2.064972292351387	-0.6654358065071364	-0.3127743016949179	1.9925223266848533	-0.6189913423353145	-0.3192154851343613	1.9078315692336978	-0.5596695363315219	-1.6430133290596005	1.884612843055058	0.9801552249272775	-0.25670673828099794	2.0038737391944563	-0.8045565773112482	-1.4077956607099182	1.8479239170150052	0.6285559762416344	-1.5315084809003676	1.8785277509472431	0.827709085305318
15	0.5	-0.2940917377368076	1.8342232041518758	-0.7000177919063582	-0.31284269916252533	1.8291821828478203	-0.6310143356478287	-0.3024894710317929	1.689294498883445	-0.5965422956435225	-0.2954767202767287	1.559905627321199	-0.5668751742451404	-0.2863604797215126	1.5326370749065632	-0.525210289074862	-0.29574349110482373	1.5395369121811635	-0.5021410374379638	-0.29965650022383	1.550705777434455	-0.5956924859563897	-0.2758421224723177	1.83645636101155	-0.7665755225613897	-0.2814992961573878	1.6879141406503195	-0.7474685496965418	-0.2420055273115262	1.5756574266640357	-0.7336205761882466	-0.38029063468604746	1.5065013385349555	-1.0582667149606126	-0.367378507053011	1.510238564997473	-1.0833399886814208				-0.2851454417360141	1.9988965950859794	-0.7128685986627489	-0.26619718703396344	2.064972292351387	-0.6654358065071364	-0.3127743016949179	1.9925223266848533	-0.6189913423353145	-0.3192154851343613	1.9078315692336978	-0.5596695363315219	-1.6430133290596005	1.884612843055058	0.9801552249272775	-0.25670673828099794	2.0038737391944563	-0.8045565773112482	-1.4008753723716547	1.8477603256666615	0.615162937551	-1.5356091161989998	1.8796394597707975	0.8330899146917494
16	0.5333333333333333	-0.2940917377368076	1.8342232041518758	-0.7000177919063582	-0.31284269916252533	1.8291821828478203	-0.6310143356478287	-0.3024894710317929	1.689294498883445	-0.5965422956435225	-0.2954767202767287	1.559905627321199	-0.5668751742451404	-0.2863604797215126	1.5326370749065632	-0.525210289074862	-0.29574349110482373	1.5395369121811635	-0.5021410374379638	-0.29965650022383	1.550705777434455	-0.5956924859563897	-0.2758421224723177	1.83645636101155	-0.7665755225613897	-0.2814992961573878	1.6879141406503195	-0.7474685496965418	-0.2420055273115262	1.5756574266640357	-0.7336205761882466	-0.38029063468604746	1.5065013385349555	-1.0582667149606126	-0.367378507053011	1.510238564997473	-1.0833399886814208				-0.2851454417360141	1.9988965950859794	-0.7128685986627489	-0.26619718703396344	2.064972292351387	-0.6654358065071364	-0.3127743016949179	1.9925223266848533	-0.6189913423353145	-0.3192154851343613	1.9078315692336978	-0.5596695363315219	-1.6430133290596005	1.884612843055058	0.9801552249272775	-0.25670673828099794	2.0038737391944563	-0.8045565773112482	-1.3785490257559572	1.8458644181929975	0.5795257702405008	-1.5397097514976317	1.8807511685943519	0.838470744078181
17	0.5666666666666667	-0.2940917377368076	1.8342232041518758	-0.7000177919063582	-0.31284269916252533	1.8291821828478203	-0.6310143356478287	-0.3024894710317929	1.689294498883445	-0.5965422956435225	-0.2954767202767287	1.559905627321199	-0.5668751742451404	-0.2863604797215126	1.5326370749065632	-0.525210289074862	-0.29574349110482373	1.5395369121811635	-0.5021410374379638	-0.29965650022383	1.550705777434455	-0.5956924859563897	-0.2758421224723177	1.83645636101155	-0.7665755225613897	-0.2814992961573878	1.6879141406503195	-0.7474685496965418	-0.2420055273115262	1.5756574266640357	-0.7336205761882466	-0.38029063468604746	1.5065013385349555	-1.0582667149606126	-0.367378507053011	1.510238564997473	-1.0833399886814208				-0.2851454417360141	1.9988965950859794	-0.7128685986627489	-0.26619718703396344	2.064972292351387	-0.6654358065071364	-0.3127743016949179	1.9925223266848533	-0.6189913423353145	-0.3192154851343613	1.9078315692336978	-0.5596695363315219	-1.6430133290596005	1.884612843055058	0.9801552249272775	-0.25670673828099794	2.0038737391944563	-0.8045565773112482	-1.3734369541909348	1.8469461466500894	0.5694570273183791	-1.5438103867962638	1.881862877417906	0.8438515734646125
18	0.6	-0.2940917377368076	1.8342232041518758	-0.7000177919063582	-0.31284269916252533	1.8291821828478203	-0.6310143356478287	-0.3024894710317929	1.689294498883445	-0.5965422956435225	-0.2954767202767287	1.559905627321199	-0.5668751742451404	-0.2863604797215126	1.5326370749065632	-0.525210289074862	-0.29574349110482373	1.5395369121811635	-0.5021410374379638	-0.29965650022383	1.550705777434455	-0.5956924859563897	-0.2758421224723177	1.83645636101155	-0.7665755225613897	-0.2814992961573878	1.6879141406503195	-0.7474685496965418	-0.2420055273115262	1.5756574266640357	-0.7336205761882466	-0.38029063468604746	1.5065013385349555	-1.0582667149606126	-0.367378507053011	1.510238564997473	-1.0833399886814208				-0.2851454417360141	1.9988965950859794	-0.7128685986627489	-0.26619718703396344	2.064972292351387	-0.6654358065071364	-0.3127743016949179	1.9925223266848533	-0.6189913423353145	-0.3192154851343613	1.9078315692336978	-0.5596695363315219	-1.6430133290596005	1.884612843055058	0.9801552249272775	-0.25670673828099794	2.0038737391944563	-0.8045565773112482	-1.3187490294444402	1.8439589490171224	0.4785190261672904	-1.5479110220948957	1.8829745862414604	0.8492324028510441
